<svg width="11" height="11" viewBox="0 0 11 11" fill="none" xmlns="http://www.w3.org/2000/svg">
<path d="M8.437 1.903C8.30646 1.903 8.17886 1.94171 8.07032 2.01423C7.96179 2.08675 7.87719 2.18983 7.82724 2.31043C7.77729 2.43103 7.76422 2.56373 7.78968 2.69176C7.81515 2.81979 7.87801 2.93739 7.97031 3.02969C8.06261 3.12199 8.18021 3.18485 8.30824 3.21032C8.43627 3.23578 8.56897 3.22271 8.68957 3.17276C8.81017 3.12281 8.91325 3.03821 8.98577 2.92968C9.05829 2.82114 9.097 2.69354 9.097 2.563C9.097 2.38796 9.02746 2.22008 8.90369 2.09631C8.77992 1.97254 8.61204 1.903 8.437 1.903ZM10.967 3.234C10.9563 2.77766 10.8708 2.32617 10.714 1.8975C10.5742 1.53072 10.3565 1.1986 10.076 0.924C9.80365 0.642084 9.47076 0.425797 9.1025 0.2915C8.67496 0.129888 8.22297 0.0424655 7.766 0.033C7.183 -3.07336e-08 6.996 0 5.5 0C4.004 0 3.817 -3.07336e-08 3.234 0.033C2.77703 0.0424655 2.32504 0.129888 1.8975 0.2915C1.52992 0.427157 1.19731 0.643258 0.924 0.924C0.642084 1.19635 0.425797 1.52924 0.2915 1.8975C0.129888 2.32504 0.0424655 2.77703 0.033 3.234C-3.07336e-08 3.817 0 4.004 0 5.5C0 6.996 -3.07336e-08 7.183 0.033 7.766C0.0424655 8.22297 0.129888 8.67496 0.2915 9.1025C0.425797 9.47076 0.642084 9.80365 0.924 10.076C1.19731 10.3567 1.52992 10.5728 1.8975 10.7085C2.32504 10.8701 2.77703 10.9575 3.234 10.967C3.817 11 4.004 11 5.5 11C6.996 11 7.183 11 7.766 10.967C8.22297 10.9575 8.67496 10.8701 9.1025 10.7085C9.47076 10.5742 9.80365 10.3579 10.076 10.076C10.3577 9.80242 10.5756 9.47001 10.714 9.1025C10.8708 8.67383 10.9563 8.22234 10.967 7.766C10.967 7.183 11 6.996 11 5.5C11 4.004 11 3.817 10.967 3.234ZM9.977 7.7C9.973 8.04912 9.90976 8.39504 9.79 8.723C9.70218 8.96236 9.56113 9.17863 9.3775 9.3555C9.19911 9.53728 8.98327 9.67804 8.745 9.768C8.41704 9.88776 8.07113 9.951 7.722 9.955C7.172 9.9825 6.9685 9.988 5.522 9.988C4.0755 9.988 3.872 9.988 3.322 9.955C2.95949 9.96179 2.59853 9.90597 2.255 9.79C2.02718 9.69544 1.82125 9.55503 1.65 9.3775C1.46745 9.20081 1.32816 8.98435 1.243 8.745C1.10872 8.41233 1.03424 8.05857 1.023 7.7C1.023 7.15 0.99 6.9465 0.99 5.5C0.99 4.0535 0.99 3.85 1.023 3.3C1.02547 2.94308 1.09062 2.58937 1.2155 2.255C1.31233 2.02285 1.46095 1.81591 1.65 1.65C1.8171 1.46089 2.02361 1.3107 2.255 1.21C2.59025 1.08902 2.9436 1.02579 3.3 1.023C3.85 1.023 4.0535 0.99 5.5 0.99C6.9465 0.99 7.15 0.99 7.7 1.023C8.04912 1.027 8.39504 1.09024 8.723 1.21C8.97294 1.30276 9.19726 1.45357 9.3775 1.65C9.55774 1.81895 9.69857 2.0255 9.79 2.255C9.91224 2.58991 9.97551 2.94348 9.977 3.3C10.0045 3.85 10.01 4.0535 10.01 5.5C10.01 6.9465 10.0045 7.15 9.977 7.7ZM5.5 2.6785C4.9422 2.67959 4.39723 2.84599 3.93396 3.15668C3.47069 3.46737 3.10991 3.90841 2.8972 4.42406C2.68449 4.93972 2.6294 5.50686 2.73889 6.05381C2.84838 6.60077 3.11753 7.10299 3.51234 7.49704C3.90715 7.89108 4.40991 8.15926 4.95707 8.26768C5.50424 8.37611 6.07127 8.31991 6.58651 8.1062C7.10175 7.89248 7.54208 7.53084 7.85187 7.06697C8.16166 6.6031 8.327 6.05781 8.327 5.5C8.32773 5.12881 8.25506 4.76113 8.11318 4.41813C7.9713 4.07512 7.76301 3.76355 7.50028 3.50133C7.23755 3.23911 6.92557 3.03142 6.58229 2.89021C6.23901 2.749 5.87119 2.67705 5.5 2.6785ZM5.5 7.3315C5.13776 7.3315 4.78366 7.22408 4.48247 7.02284C4.18128 6.82159 3.94654 6.53555 3.80791 6.20088C3.66929 5.86622 3.63302 5.49797 3.70369 5.14269C3.77436 4.78742 3.94879 4.46107 4.20493 4.20493C4.46107 3.94879 4.78742 3.77436 5.14269 3.70369C5.49797 3.63302 5.86622 3.66929 6.20088 3.80791C6.53555 3.94654 6.82159 4.18128 7.02284 4.48247C7.22408 4.78366 7.3315 5.13776 7.3315 5.5C7.3315 5.74052 7.28413 5.97868 7.19209 6.20088C7.10004 6.42309 6.96514 6.625 6.79507 6.79507C6.625 6.96514 6.42309 7.10004 6.20088 7.19209C5.97868 7.28413 5.74052 7.3315 5.5 7.3315Z" fill="#950F16"/>
</svg>
