<svg width="11" height="11" viewBox="0 0 11 11" fill="none" xmlns="http://www.w3.org/2000/svg">
<path d="M8.0678 6.60549C7.95729 6.55056 7.23892 6.22097 7.1284 6.16604C7.01788 6.11111 6.90737 6.11111 6.79685 6.22097C6.68633 6.33084 6.46529 6.66042 6.35478 6.77029C6.29952 6.88015 6.189 6.88015 6.07848 6.82522C5.69167 6.66042 5.30486 6.4407 4.9733 6.16604C4.69701 5.89139 4.42071 5.5618 4.19968 5.23221C4.14442 5.12235 4.19968 5.01248 4.25494 4.95755C4.3102 4.90262 4.36546 4.79276 4.47597 4.73783C4.53123 4.6829 4.58649 4.57303 4.58649 4.5181C4.64175 4.46317 4.64175 4.35331 4.58649 4.29838C4.53123 4.24345 4.25494 3.58427 4.14442 3.30961C4.08916 2.92509 3.97864 2.92509 3.86812 2.92509C3.81287 2.92509 3.70235 2.92509 3.59183 2.92509C3.48131 2.92509 3.31554 3.03496 3.26028 3.08989C2.92872 3.41948 2.76295 3.80399 2.76295 4.24345C2.81821 4.73783 2.98398 5.23221 3.31554 5.67166C3.92338 6.55056 4.69701 7.26467 5.63641 7.70412C5.9127 7.81398 6.13374 7.92385 6.41004 7.97878C6.68633 8.08864 6.96262 8.08864 7.29418 8.03371C7.68099 7.97878 8.01254 7.70412 8.23358 7.37453C8.3441 7.15481 8.3441 6.93508 8.28884 6.71536C8.28884 6.71536 8.17832 6.66042 8.0678 6.60549ZM9.44928 1.60674C7.29418 -0.53558 3.81287 -0.53558 1.65777 1.60674C-0.110518 3.36454 -0.442071 6.05618 0.773625 8.1985L0 11L2.92872 10.231C3.75761 10.6704 4.64175 10.8901 5.52589 10.8901C8.56513 10.8901 10.9965 8.47316 10.9965 5.45193C11.0518 4.02372 10.4439 2.65044 9.44928 1.60674ZM7.95728 9.29713C7.23892 9.73658 6.41004 10.0112 5.52589 10.0112C4.69701 10.0112 3.92338 9.79151 3.20502 9.40699L3.03924 9.29713L1.32621 9.73658L1.76829 8.08864L1.65777 7.92384C0.331553 5.72659 0.99466 2.98003 3.14976 1.60674C5.30486 0.233458 8.0678 0.947566 9.39402 3.03496C10.7202 5.17728 10.1124 7.97878 7.95728 9.29713Z" fill="#950F16"/>
</svg>
