<svg width="11" height="11" viewBox="0 0 11 11" fill="none" xmlns="http://www.w3.org/2000/svg">
<path d="M10.6326 0.259307C10.4903 0.129639 10.3184 0.0446558 10.1355 0.0134026C9.9525 -0.0178506 9.7652 0.00579517 9.59353 0.0818236L0.632846 4.04269C0.441216 4.12901 0.278095 4.2771 0.165134 4.46729C0.052173 4.65749 -0.00528641 4.88079 0.000382492 5.10758C0.0060514 5.33436 0.0745805 5.55389 0.196874 5.73704C0.319168 5.92018 0.489442 6.05827 0.685098 6.13299L2.49764 6.82316L3.50792 10.4809C3.52165 10.5298 3.54157 10.5763 3.56711 10.6191C3.57099 10.6256 3.57645 10.6305 3.58057 10.6369C3.61008 10.682 3.64573 10.7218 3.68629 10.755C3.69783 10.7647 3.70887 10.7737 3.7212 10.7822C3.76867 10.8167 3.82124 10.8419 3.87657 10.8567L3.88249 10.8573L3.88585 10.8589C3.91911 10.8663 3.95297 10.87 3.98692 10.8701C3.99019 10.8701 3.99309 10.8684 3.99632 10.8683C4.04756 10.8673 4.09834 10.8577 4.14687 10.8397C4.15816 10.8355 4.16784 10.8284 4.17879 10.8233C4.21498 10.8069 4.24927 10.7859 4.28094 10.7606C4.3063 10.7372 4.33167 10.7138 4.35705 10.6905L5.70817 9.05725L7.72336 10.7664C7.90077 10.9176 8.11914 10.9998 8.34398 11C8.57957 10.9997 8.8079 10.9107 8.99069 10.7479C9.17347 10.5852 9.2996 10.3586 9.34792 10.1061L10.9793 1.33814C11.0163 1.1408 11.0035 0.936168 10.9425 0.746138C10.8814 0.556109 10.7743 0.387831 10.6326 0.259307ZM4.18519 6.99744C4.11586 7.07305 4.06846 7.16938 4.04895 7.27437L3.8942 8.09771L3.50216 6.67817L5.53483 5.51929L4.18519 6.99744ZM8.33618 9.90085L5.95476 7.88112C5.85513 7.79683 5.73015 7.75674 5.60473 7.76882C5.4793 7.78091 5.36264 7.84429 5.27799 7.94634L4.84527 8.46925L4.99819 7.65552L8.53979 3.77805C8.62432 3.68562 8.67583 3.5631 8.68497 3.43269C8.69412 3.30227 8.6603 3.17258 8.58964 3.06711C8.51898 2.96163 8.41616 2.88735 8.29979 2.85772C8.18343 2.82809 8.06122 2.84507 7.9553 2.90558L2.87253 5.80294L1.0103 5.05684L9.99978 1.11947L8.33618 9.90085Z" fill="#950F16"/>
</svg>
